<?xml version="1.0" encoding="utf-8"?>
<!-- Generator: Adobe Illustrator 26.0.2, SVG Export Plug-In . SVG Version: 6.00 Build 0)  -->
<svg version="1.1" xmlns="http://www.w3.org/2000/svg" xmlns:xlink="http://www.w3.org/1999/xlink" x="0px" y="0px"
	 viewBox="0 0 192 192" style="enable-background:new 0 0 192 192;" xml:space="preserve">
<style type="text/css">
	.st0{display:none;}
	.st1{display:inline;fill:#B5B5B6;}
	.st2{display:inline;}
	.st3{display:inline;fill:url(#SVGID_1_);}
	.st4{display:inline;fill:url(#SVGID_00000143613612725737565670000004352925498711225790_);}
	.st5{display:inline;fill:url(#SVGID_00000026147573355012035470000002623785362539224227_);}
	.st6{fill:url(#SVGID_00000084515544341112863660000013634462912675191437_);}
	.st7{display:none;fill:#40220F;}
	.st8{display:none;fill:none;stroke:#FFFFFF;stroke-width:7;stroke-miterlimit:10;}
	.st9{display:none;fill:#FFFFFF;}
	.st10{display:inline;fill:#40220F;}
	.st11{fill:#40220F;}
	.st12{fill:#FFE200;}
</style>
<g id="レイヤー_2" class="st0">
	<rect class="st1" width="192" height="192"/>
</g>
<g id="レイヤー_3" class="st0">
	<path class="st2" d="M72.39,32.3c0,0-10.78,2.58-24.09,2.58S24.22,32.3,24.22,32.3S35,29.72,48.31,29.72S72.39,32.3,72.39,32.3z"/>
	<path class="st2" d="M49.43,43.09c-13.3,0-24.09-2.58-24.09-2.58s10.78-2.58,24.09-2.58"/>
</g>
<g id="レイヤー_4" class="st0">
	<g class="st2">
		<g>
			<g>
				<path d="M141.18,89.29c0,0,0.24,0.12,0.7,0.35c0.46,0.24,1.19,0.55,2.05,1.1c1.78,1.03,4.36,2.76,7.14,5.71
					c2.78,2.92,5.8,7.08,7.95,12.7c1.07,2.8,1.93,5.97,2.35,9.46c0.42,3.49,0.4,7.25-0.15,11.17c-0.54,3.92-1.67,7.95-3.39,11.96
					c-1.7,4.02-4.05,7.97-7.03,11.71c-6,7.52-14.66,13.75-24.8,17.41c-5.07,1.83-10.5,3.07-16.15,3.55
					c-5.65,0.5-11.66,0.28-17.89-1.16c-3.11-0.72-6.27-1.79-9.39-3.27c-3.1-1.48-6.19-3.4-8.94-5.77c-2.76-2.34-5.19-5.03-7.25-7.91
					c-2.05-2.88-3.68-5.94-5.02-9.05c-3.08-7.29-4.37-14.61-4.67-21.64c-0.26-7.05,0.47-13.38,1.36-19.27
					c0.91-5.87,2.02-11.24,2.9-16.23c0.45-2.53,0.8-4.75,1.22-7.54c0.42-2.58,0.84-5.12,1.26-7.61c1.67-9.76,3.01-18.42,2.79-25.88
					c-0.09-3.72-0.6-7.08-1.52-10.06c-0.47-1.48-1.05-2.85-1.72-4.15c-0.37-0.61-0.7-1.26-1.12-1.84c-0.2-0.29-0.38-0.61-0.6-0.87
					l-0.31-0.4l-0.23-0.33c-0.97-1.29-2.34-2.19-3.88-2.71c-1.64-0.56-3.45-0.79-5.07-0.75c-1.65,0.03-2.93,0.33-3.95,0.9
					c-0.97,0.59-1.66,1.51-2.02,2.57c-0.36,1.06-0.39,2.18-0.3,3.13c0.07,0.97,0.3,1.79,0.49,2.46c0.23,0.65,0.41,1.16,0.57,1.48
					c0.15,0.33,0.22,0.5,0.22,0.5s-0.13-0.13-0.39-0.39c-0.27-0.25-0.63-0.66-1.1-1.23c-0.43-0.59-0.97-1.34-1.43-2.37
					c-0.46-1.02-0.91-2.31-0.94-3.94c-0.04-1.61,0.48-3.64,1.9-5.36c1.42-1.69,3.58-2.91,5.74-3.61c2.2-0.73,4.63-1.18,7.41-1.09
					c2.86,0.09,6.12,0.92,8.92,2.93c0.44,0.33,0.88,0.66,1.33,0.99c0.42,0.3,0.8,0.65,1.2,0.99c0.82,0.66,1.56,1.44,2.34,2.21
					c1.49,1.6,2.89,3.4,4.12,5.36c2.45,3.94,4.25,8.49,5.44,13.23c2.4,9.52,2.64,19.79,2.51,30.04c-0.04,2.52-0.09,5.07-0.13,7.67
					c-0.02,2.39-0.1,5.43-0.26,8.2c-0.31,5.64-0.87,11.13-1.23,16.42c-0.36,5.26-0.55,10.42-0.15,15.06
					c0.4,4.62,1.4,9.16,3.04,12.99c0.7,1.63,1.49,3.14,2.37,4.44c0.89,1.29,1.85,2.41,2.88,3.38c2.01,1.9,4.67,3.38,7.89,4.42
					c3.21,1.02,6.86,1.57,10.56,1.64c3.72,0.09,7.4-0.27,10.91-1c7.03-1.47,13.33-4.53,18.21-8.64c4.94-4.14,8.61-9.4,10.76-14.71
					c2.17-5.34,2.82-10.71,2.39-15.56c-0.39-4.86-1.77-9.06-3.32-12.33c-1.54-3.29-3.28-5.65-4.55-7.17
					c-0.61-0.8-1.17-1.32-1.51-1.71C141.36,89.48,141.18,89.29,141.18,89.29z"/>
			</g>
		</g>
	</g>
	<g class="st2">
		<g>
			<g>
				<path d="M69.5,81.18c-0.4-2.92-0.09-5.75,0.57-8.27c0.67-2.53,1.68-4.76,2.79-6.8c2.28-4.06,4.88-7.14,6.99-9.99
					c2.15-2.84,3.72-5.41,4.93-8.2c1.19-2.75,1.93-5.51,2.35-8.1c0.41-2.59,0.51-5.01,0.36-7.15c-0.17-2.12-0.46-3.99-0.89-5.48
					c-0.16-0.77-0.42-1.4-0.59-1.99c-0.17-0.58-0.37-1.06-0.53-1.44c-0.32-0.78-0.48-1.19-0.48-1.19s0.3,0.33,0.86,0.96
					c0.29,0.32,0.64,0.71,1,1.22c0.36,0.51,0.83,1.08,1.23,1.79c0.9,1.38,1.79,3.21,2.6,5.46c0.79,2.25,1.38,4.95,1.6,8
					c0.21,3.05,0.04,6.46-0.78,10.04c-0.79,3.55-2.38,7.4-4.34,10.79c-1.92,3.42-4.05,6.64-5.52,9.79
					c-1.48,3.17-2.31,6.42-1.92,9.12"/>
			</g>
		</g>
	</g>
	<g class="st2">
		<g>
			<g>
				<path d="M111.9,154.13c0.06-0.01,0.12-0.01,0.17,0c0.07,0,0.07,0.05,0.23,0.04c0.13,0,0.26,0,0.4,0.01
					c0.12,0.01,0.26,0.02,0.46-0.01c0.37-0.05,0.68-0.02,1.1-0.1c0.41-0.08,0.81-0.12,1.23-0.21c1.71-0.35,3.54-0.96,5.29-1.67
					c1.77-0.71,3.46-1.59,4.96-2.54c1.48-0.93,2.82-2,3.53-2.81c0.1-0.17,0.26-0.34,0.37-0.46c0-0.03,0.01-0.05,0.04-0.07l0.02-0.01
					c0.01,0,0.01,0,0.01,0l0.2,0.07l0.2,0.06c-0.17-0.07,0.53,0.19-0.36-0.15l0.01-0.03l0.04-0.1c0.22-0.55,0.39-1.14,0.5-1.77
					c0.22-1.25,0.2-2.64-0.05-3.99c-0.06-0.34-0.14-0.67-0.23-1.01l-0.35-1.03c-0.09-0.35-0.25-0.69-0.42-1.03
					c-0.17-0.34-0.28-0.69-0.49-1.03c-0.73-1.38-1.72-2.76-2.81-4.15c-2.29-2.79-5.12-5.51-7.97-8.51
					c-2.83-2.99-5.72-6.24-7.86-10.13c-1.11-1.9-1.94-3.99-2.57-6.01c-0.61-2.04-0.97-4.07-1.18-6.05c-0.34-3.96-0.04-7.7,0.7-11.09
					c0.74-3.4,1.84-6.48,3.14-9.24c1.32-2.77,2.8-5.16,4.29-7.3c3-4.28,6.02-7.49,8.53-10.02c2.53-2.52,4.57-4.36,5.96-5.61
					c1.4-1.23,2.13-1.88,2.13-1.88s-0.56,0.8-1.64,2.32c-1.07,1.52-2.66,3.76-4.58,6.69c-1.9,2.93-4.16,6.56-6.16,10.94
					c-0.99,2.18-1.93,4.57-2.65,7.1c-0.7,2.53-1.19,5.26-1.36,8.09c-0.32,5.63,0.77,11.76,4.35,16.42c1.74,2.42,4.24,4.71,7.09,7.14
					c2.85,2.43,6.17,5.02,9.48,8.38c1.65,1.73,3.3,3.64,4.76,5.92c0.38,0.55,0.69,1.18,1.04,1.78c0.34,0.6,0.68,1.21,0.95,1.88
					c0.28,0.65,0.57,1.31,0.84,1.98c0.25,0.7,0.48,1.4,0.67,2.12c0.77,2.87,1.08,5.95,0.75,9.1c-0.17,1.58-0.49,3.17-1,4.74
					c-0.09,0.35-0.34,0.9-0.55,1.38c-0.22,0.49-0.45,0.97-0.69,1.45c-0.49,0.84-1.01,1.57-1.54,2.33c-2.15,2.72-4.42,4.52-6.75,6.15
					c-2.34,1.6-4.74,2.93-7.28,4.03c-2.55,1.11-5.17,2.06-8.1,2.71c-0.74,0.16-1.52,0.28-2.28,0.41c-0.76,0.14-1.64,0.18-2.46,0.25
					c-0.4,0.04-0.86,0.05-1.33,0.03l-1.4-0.04c-0.43,0-1.02-0.1-1.54-0.18c-0.54-0.09-1.07-0.18-1.6-0.29"/>
			</g>
		</g>
	</g>
	<g class="st2">
		<g>
			<g>
				<path d="M87.63,169.43c-0.65-0.31-1.55-0.76-2.81-1.16l-0.91-0.31l-1.01-0.29l-1.01-0.29l-1.08-0.27
					c-2.88-0.73-6-1.38-9.16-2.06c-3.17-0.68-6.41-1.38-9.68-2.24c-3.28-0.87-6.58-1.83-10.1-3.39l-1.35-0.64
					c-0.43-0.21-0.92-0.44-1.26-0.64c-0.73-0.41-1.48-0.84-2.22-1.3c-1.49-0.92-2.99-1.94-4.46-3.16c-1.46-1.21-2.89-2.61-4.16-4.26
					c-1.27-1.64-2.35-3.54-3.07-5.56c-0.74-2.03-1.02-4.07-1.08-5.91c-0.03-1.85,0.16-3.53,0.47-5.06c0.61-3.05,1.61-5.57,2.47-7.68
					c1.78-4.24,3.01-7.28,3.05-10.25c0.08-3.01-0.75-5.8-1.82-7.9c-1.06-2.13-2.34-3.62-3.26-4.57c-0.46-0.48-0.85-0.82-1.12-1.05
					c-0.26-0.23-0.4-0.35-0.4-0.35s0.17,0.05,0.51,0.15c0.34,0.09,0.85,0.24,1.49,0.51c1.29,0.52,3.21,1.44,5.3,3.31
					c2.08,1.85,4.36,4.67,5.72,8.77c0.69,2.04,1.03,4.48,1.03,6.85c0.01,2.4-0.26,4.79-0.5,7.06c-0.25,2.29-0.43,4.39-0.29,6.29
					c0.07,0.94,0.23,1.79,0.46,2.51c0.25,0.71,0.53,1.26,0.89,1.67c0.69,0.83,1.75,1.64,3.47,2.53c0.85,0.44,1.85,0.87,2.95,1.29
					c0.55,0.21,1.13,0.42,1.74,0.64c0.33,0.13,0.54,0.16,0.79,0.23l0.73,0.2c2.11,0.53,4.82,0.96,7.69,1.33
					c3.02,0.37,6.11,0.74,9.25,1.12c3.28,0.41,6.71,0.88,10.41,1.64l1.39,0.29l1.45,0.35c0.49,0.12,0.96,0.23,1.46,0.37l1.53,0.46
					c2.01,0.6,4.29,1.51,6.71,2.81"/>
			</g>
		</g>
	</g>
	<g class="st2">
		<g>
			<g>
				<path d="M123.97,124.77c-6.1,2.48-12.91,2.23-18.53-0.53c-2.82-1.39-5.22-3.4-7.07-5.68c-1.84-2.3-3.14-4.89-3.9-7.55
					c-0.37-1.33-0.61-2.69-0.72-4.02c-0.11-1.32-0.07-2.58,0-3.79c0.19-2.39,0.62-4.52,1.04-6.46c0.85-3.88,1.56-7.11,1.39-10
					c-0.06-1.46-0.32-2.87-0.7-4.17c-0.37-1.31-0.87-2.53-1.44-3.61c-1.14-2.19-2.53-3.92-3.82-5.18c-1.29-1.28-2.5-2.06-3.32-2.62
					c-0.86-0.5-1.3-0.76-1.3-0.76s0.51,0.12,1.48,0.35c0.95,0.31,2.39,0.75,4.1,1.73c1.71,0.96,3.68,2.43,5.55,4.62
					c0.94,1.09,1.84,2.36,2.62,3.84c0.79,1.46,1.48,3.13,1.93,4.97c0.98,3.74,0.75,7.89,0.51,11.77c-0.11,1.95-0.2,3.86-0.1,5.66
					c0.07,0.89,0.16,1.76,0.33,2.57c0.17,0.8,0.41,1.58,0.73,2.35c0.64,1.53,1.57,2.97,2.74,4.19c1.18,1.21,2.58,2.19,4.12,2.83
					c3.1,1.31,7.07,1.33,10.43-0.05"/>
			</g>
		</g>
	</g>
	<g class="st2">
		<g>
			<g>
				<path d="M64.75,92.46c-0.07-0.02-0.5-0.07-1.05,0.05c-0.55,0.11-1.21,0.37-1.64,0.63c-0.45,0.26-0.66,0.48-0.6,0.41l0.09-0.09
					l0.03-0.04l0.01-0.01c0.86-1.04-1.16,1.41-0.96,1.16l0,0c0,0-0.01-0.01-0.01-0.01c-0.01-0.02-0.05-0.05-0.1-0.1
					c-0.22-0.19-0.85-0.54-1.87-0.92c-0.5-0.19-1.09-0.4-1.76-0.61c-0.66-0.21-1.31-0.42-1.96-0.63c-5.28-1.65-10.9-3.13-16.44-5.06
					c-5.52-1.91-10.99-4.33-15.65-7.43c-4.69-3.07-8.66-6.84-11.41-10.9c-1.37-2-2.5-4.17-3.26-6.2c-0.77-2.05-1.25-4.04-1.53-5.9
					c-0.51-3.75-0.18-6.96,0.51-9.42c0.68-2.46,1.61-4.17,2.32-5.23c0.34-0.54,0.67-0.91,0.86-1.17c0.2-0.25,0.3-0.38,0.3-0.38
					s-0.03,0.16-0.09,0.48c-0.05,0.32-0.17,0.77-0.24,1.38c-0.16,1.21-0.25,3,0.07,5.16c0.3,2.16,1.1,4.68,2.51,7.24
					c1.46,2.56,3.48,5.09,6.24,7.15c2.77,2.13,6.2,3.87,10.18,5.24c4,1.39,8.46,2.31,13.54,3.11c5.07,0.82,10.75,1.48,17.02,2.8
					c0.78,0.17,1.58,0.34,2.38,0.53c0.78,0.18,1.64,0.4,2.58,0.67c1.86,0.55,4.09,1.32,6.5,2.76c1.2,0.72,2.4,1.59,3.64,2.79
					c1.19,1.16,2.24,2.47,3.13,3.99c0.88,1.52,1.62,3.26,2.03,5.26c0.41,2,0.48,4.29,0,6.55"/>
			</g>
		</g>
	</g>
	<g class="st2">
		<g>
			<g>
				<path d="M66.69,81.79c-3.35-0.46-6.81-0.95-10.3-1.78c-3.49-0.84-6.99-2.02-10.29-3.82c-3.27-1.79-6.23-4.15-8.59-7.02
					c-2.37-2.84-4.1-6.3-4.92-9.67c-0.85-3.36-1.03-6.51-1.08-9.41c-0.03-2.9,0.05-5.58,0.1-8.18c0.13-5.18,0.17-9.88-0.21-14.12
					c-0.63-8.46-3.53-14.93-6.6-18.62c-1.51-1.87-3-3.06-4.07-3.78C20.2,5,19.75,4.79,19.46,4.61c-0.29-0.17-0.44-0.25-0.44-0.25
					s0.16,0.05,0.49,0.15c0.32,0.11,0.81,0.22,1.42,0.49c1.23,0.48,3.03,1.37,5.01,3.03c1.99,1.64,4.14,4.04,6.01,7.23
					c1.9,3.17,3.48,7.18,4.53,11.68c1.08,4.5,1.69,9.5,2.17,14.71c0.54,5.19,0.72,10.84,2.29,15.39c0.78,2.26,1.96,4.19,3.63,5.97
					c1.66,1.75,3.75,3.26,6.12,4.42c2.34,1.15,5.06,1.99,7.97,2.62c2.92,0.63,6.08,1.05,9.42,1.51"/>
			</g>
		</g>
	</g>
	<g class="st2">
		<g>
			<g>
				<path d="M139.58,73.04c0,0,0.12-0.15,0.34-0.42c0.22-0.27,0.53-0.69,0.85-1.26c0.66-1.11,1.33-2.86,1.49-5.03
					c0.08-1.08,0.03-2.26-0.2-3.47c-0.24-1.19-0.64-2.45-1.25-3.69c-1.18-2.5-3.11-4.98-5.47-7.38c-2.38-2.41-4.97-4.63-7.26-6.86
					c-2.3-2.22-4.27-4.48-5.64-6.57c-1.38-2.09-2.18-3.96-2.58-5.27c-0.21-0.66-0.33-1.17-0.4-1.53c-0.07-0.35-0.1-0.54-0.1-0.54
					s0.41,0.64,1.22,1.69c0.81,1.05,2.09,2.45,3.82,3.96c1.73,1.53,3.93,3.12,6.47,4.91c2.52,1.81,5.42,3.83,8.15,6.58
					c2.72,2.76,4.87,6.06,5.87,9.48c0.51,1.69,0.72,3.4,0.69,4.99c-0.06,1.58-0.37,3.02-0.81,4.26c-0.89,2.49-2.3,4.12-3.39,4.99
					c-0.27,0.23-0.52,0.41-0.75,0.55c-0.22,0.15-0.41,0.27-0.57,0.35C139.75,72.96,139.58,73.04,139.58,73.04z"/>
			</g>
		</g>
	</g>
	<g class="st2">
		<g>
			<g>
				<path d="M8.26,85.94c0,0-0.05,0.15-0.16,0.43C8,86.65,7.88,87.07,7.8,87.61c-0.19,1.06-0.12,2.61,0.55,4.25
					c0.33,0.82,0.8,1.66,1.41,2.44c0.61,0.77,1.38,1.51,2.29,2.2c1.81,1.39,4.16,2.55,6.81,3.66c2.61,1.1,5.64,2.19,8.05,4.29
					c1.19,1.02,2.17,2.35,2.72,3.67c0.57,1.32,0.75,2.63,0.73,3.79c-0.04,2.34-0.93,4.01-1.65,4.94c-0.37,0.48-0.69,0.8-0.93,1
					c-0.23,0.2-0.35,0.3-0.35,0.3s0.06-0.15,0.17-0.43c0.12-0.27,0.26-0.69,0.38-1.22c0.24-1.05,0.35-2.62-0.19-4.28
					c-0.26-0.82-0.67-1.66-1.26-2.39c-0.59-0.74-1.3-1.34-2.24-1.88c-1.85-1.11-4.46-1.79-7.46-3.03c-2.96-1.25-5.76-2.99-7.79-5.26
					c-1.01-1.12-1.83-2.36-2.37-3.64c-0.53-1.27-0.8-2.52-0.86-3.66c-0.14-2.3,0.56-4.08,1.24-5.06c0.33-0.5,0.64-0.84,0.87-1.05
					C8.14,86.05,8.26,85.94,8.26,85.94z"/>
			</g>
		</g>
	</g>
	<g class="st2">
		<g>
			<g>
				<path d="M114.97,182.15c0,0,0.5-0.06,1.44-0.19c0.47-0.06,1.04-0.13,1.72-0.21c0.34-0.04,0.7-0.08,1.08-0.12
					c0.39-0.06,0.8-0.16,1.23-0.24c0.85-0.17,1.8-0.35,2.84-0.55c1.03-0.24,2.13-0.58,3.29-0.88c1.17-0.26,2.39-0.77,3.67-1.19
					c1.29-0.39,2.6-1,3.97-1.57c2.75-1.14,5.6-2.68,8.56-4.38c2.88-1.86,5.92-3.81,8.77-6.27c0.36-0.29,0.73-0.59,1.1-0.89
					c0.36-0.31,0.7-0.64,1.05-0.96c0.7-0.65,1.42-1.28,2.12-1.95c0.67-0.69,1.35-1.39,2.03-2.09c0.35-0.34,0.68-0.7,0.99-1.08
					c0.32-0.37,0.64-0.74,0.96-1.12c2.53-3,4.93-6.24,6.75-9.78c3.64-6.99,5.39-14.87,5.93-22.43c0.06-0.95,0.13-1.89,0.19-2.81
					c0.02-0.94,0.03-1.86,0.05-2.77c0.01-0.46,0.02-0.91,0.03-1.37c-0.01-0.45-0.03-0.9-0.04-1.35c-0.02-0.9-0.04-1.78-0.06-2.65
					c-0.13-1.74-0.19-3.44-0.36-5.08c-0.2-1.63-0.28-3.23-0.53-4.73c-0.82-6.04-1.88-11.03-2.78-14.45
					c-0.39-1.74-0.83-3.04-1.06-3.97c-0.24-0.92-0.37-1.4-0.37-1.4s0.33,0.37,0.96,1.09c0.6,0.73,1.59,1.76,2.65,3.23
					c2.25,2.87,5.19,7.29,8.02,13.28c0.75,1.48,1.35,3.11,2.05,4.8c0.67,1.7,1.23,3.51,1.85,5.39c0.26,0.96,0.51,1.93,0.78,2.92
					c0.13,0.5,0.26,1,0.39,1.51c0.1,0.51,0.2,1.03,0.31,1.55c0.2,1.05,0.4,2.12,0.6,3.2c0.13,1.1,0.26,2.21,0.4,3.34
					c0.41,4.54,0.52,9.43-0.31,14.53c-0.79,5.08-2.36,10.37-4.98,15.39c-2.6,5.01-6.06,9.21-9.72,12.78
					c-0.46,0.44-0.93,0.88-1.39,1.31c-0.45,0.44-0.93,0.86-1.42,1.24c-0.97,0.77-1.94,1.54-2.89,2.3c-0.98,0.72-1.99,1.36-2.97,2.02
					c-0.5,0.32-0.98,0.66-1.48,0.96c-0.51,0.29-1.01,0.57-1.52,0.85c-3.96,2.33-8.05,3.88-11.86,5.15
					c-3.88,1.12-7.53,1.89-10.91,2.19c-1.69,0.15-3.27,0.31-4.8,0.26c-1.52-0.02-2.93,0.04-4.26-0.14
					c-1.33-0.14-2.54-0.23-3.65-0.41c-1.1-0.23-2.11-0.43-3.01-0.62c-0.45-0.1-0.87-0.18-1.26-0.28c-0.39-0.12-0.75-0.24-1.09-0.35
					c-0.67-0.22-1.23-0.41-1.69-0.56C115.44,182.31,114.97,182.15,114.97,182.15z"/>
			</g>
		</g>
	</g>
	<g class="st2">
		<g>
			<g>
				<path d="M172.75,118.45c-0.79-3.82-2.93-7.5-5.89-11.04c-2.88-3.56-6.25-6.97-9.28-10.72c-3.02-3.72-5.74-7.85-7.15-12.35
					l-0.28-0.82l-0.18-0.86c-0.12-0.57-0.23-1.13-0.34-1.68c-0.24-1.1-0.29-2.25-0.32-3.33c-0.03-2.18,0.29-4.24,0.8-6.11
					c1.04-3.76,2.96-6.77,5.03-8.91c2.08-2.14,4.23-3.49,6.06-4.33c1.83-0.86,3.34-1.22,4.35-1.43c0.51-0.1,0.9-0.16,1.16-0.19
					c0.26-0.03,0.39-0.05,0.39-0.05s-0.12,0.06-0.36,0.16c-0.24,0.1-0.59,0.26-1.04,0.5c-0.9,0.47-2.2,1.19-3.64,2.38
					c-1.44,1.17-3.02,2.82-4.34,4.98c-1.3,2.15-2.28,4.85-2.53,7.87c-0.12,1.5-0.07,3.08,0.23,4.64c0.16,0.78,0.31,1.56,0.63,2.33
					c0.15,0.39,0.29,0.77,0.44,1.17l0.22,0.59l0.31,0.57c1.51,3.08,3.99,6.04,7.04,9.07c3.03,3.05,6.69,6.15,10.28,10.09
					c0.91,0.95,1.78,2.07,2.66,3.14c0.44,0.55,0.84,1.17,1.26,1.76c0.41,0.6,0.84,1.18,1.2,1.87c0.37,0.66,0.74,1.33,1.11,2
					c0.35,0.69,0.63,1.44,0.93,2.17l0.45,1.11c0.13,0.38,0.22,0.78,0.33,1.17c0.2,0.79,0.4,1.58,0.61,2.38"/>
			</g>
		</g>
	</g>
</g>
<g id="レイヤー_4のコピー_2" class="st0">
	<radialGradient id="SVGID_1_" cx="168.8698" cy="172.6225" r="227.6587" gradientUnits="userSpaceOnUse">
		<stop  offset="0" style="stop-color:#FFE200"/>
		<stop  offset="0.1048" style="stop-color:#FFDF00"/>
		<stop  offset="0.2102" style="stop-color:#FFD700"/>
		<stop  offset="0.316" style="stop-color:#FCC900"/>
		<stop  offset="0.4221" style="stop-color:#F8B500"/>
		<stop  offset="0.5284" style="stop-color:#F39800"/>
		<stop  offset="0.635" style="stop-color:#EE7300"/>
		<stop  offset="0.7398" style="stop-color:#E8400D"/>
		<stop  offset="0.7974" style="stop-color:#E60012"/>
	</radialGradient>
	<path class="st3" d="M95.93,183.19c-1.39-0.66-2.82-1.25-4.31-1.61c-6.64-1.6-12.15-6.84-18.83-8.15
		c-12.08-2.57-25.63-5.7-33.84-16.2c-13.94-16.88,13.27-35.53-4.84-50.1c11.02,2.38,16.39,16.56,13.81,27.63
		c-0.59,2.72-0.66,4.99-0.28,6.9c1.35,6.76,11.47,4.82,10.54-2.01c-0.7-5.14-0.79-10.32-0.49-15.47
		c0.82-14.25-7.62-27.38-20.81-32.24c-4.89-1.8-9.59-3.95-13.8-6.91C9.73,77.09,0.4,57.48,10.63,44.38
		c-0.93,4.11-0.59,7.92,0.67,11.35c4.14,11.24,20.84,7.64,20.47-4.36C31.24,34.24,34.55,15.39,19.2,6.8
		c15.03,4.67,18.91,23.84,19.99,38.67c-1.18,40.24,46.05,17.01,23-9.79c-0.24-0.28-0.44-0.62-0.69-0.9
		c-6.58-7.22-16.02-2.79-14.04,7.94C33.24,26.03,62.51,14.08,77,36.43c3.75,5.79,12.69,2.31,11.35-4.49
		c-0.43-2.17-1.09-4.27-1.98-6.26c9.49,9.93,18.64,31.43,13.19,43.76c-2.78,6.29-19.62,55.71-13.06,75.01
		c6.69,17.64,16.42-23.84,8.79-31.26c-14.7-14.3,28.68-62.93,14.72-73.96c49.93,39.45,4.48,55.85,11.03,74.88
		c0.39,1.15,23.21-18.61,22.54-19.26C240.14,120.85,150.42,209.17,95.93,183.19z M185.97,99.82c-5.36-16.66-19.09-34.04-32.44-42.87
		c1.91,3.56,4.34,8,6.34,12.49c-7.31-4.35-15.55-8.58-20.42-14.77c-8.07-9.85-4.28-25.59,5.55-32.04
		c-14.33,4.5-20.76,24.46-12.14,37.46c5.21,9.41,15.47,14.87,24.11,21.45c8.23,6.27,11.14,16.19,14.46,25.98
		C183.21,142.3,182.58,119.37,185.97,99.82z M24.52,103.66c0.64-5.28-3.66-12.77-9.19-11.66c6.15,6.81-3.93,14.38-3.39,22.48
		c-1.06,8.06,7.4,14.45,14.46,12.8c-0.92-1.03-2.98-3.08-4.09-4.89C19.02,116.49,24.77,110.47,24.52,103.66z M168.17,60.79
		c3.59-0.92,5.23-6.34,3.79-10.26c-2.9-9.89-18.98-12.03-15.31-23.8c-6.67,2.4-8.38,12.95-3.21,18.55
		C157.57,51.71,170.11,51.98,168.17,60.79z M107.94,36.3c14.81-1.83,12.05-24.45-1.26-27.36c-5.37-1.59-10.52-0.5-14.38,2.13
		C102.13,13.81,115.03,25.46,107.94,36.3z"/>
</g>
<g id="レイヤー_4のコピー" class="st0">
	
		<radialGradient id="SVGID_00000051346424705340970700000001396184327749631384_" cx="162.9611" cy="169.2383" r="216.5062" gradientUnits="userSpaceOnUse">
		<stop  offset="0.0903" style="stop-color:#BEE3F0"/>
		<stop  offset="0.191" style="stop-color:#B9E2F0"/>
		<stop  offset="0.3091" style="stop-color:#AADCF0"/>
		<stop  offset="0.4358" style="stop-color:#8ED2EF"/>
		<stop  offset="0.5688" style="stop-color:#5CC4ED"/>
		<stop  offset="0.7066" style="stop-color:#00B4EB"/>
		<stop  offset="0.8465" style="stop-color:#00A3E9"/>
		<stop  offset="0.8763" style="stop-color:#00A0E9"/>
	</radialGradient>
	<path style="display:inline;fill:url(#SVGID_00000051346424705340970700000001396184327749631384_);" d="M95.97,186.03
		c-1.43-0.68-2.91-1.29-4.45-1.66c-6.86-1.65-12.56-7.07-19.46-8.42c-12.49-2.66-26.49-5.89-34.98-16.75
		c-14.41-17.44,7.31-34.06-11.41-49.12c11.39,2.46,23.35,14.45,20.68,25.89c-0.61,2.81-0.69,5.16-0.29,7.14
		c1.4,6.99,11.86,4.98,10.89-2.08c-0.73-5.31-0.82-10.67-0.51-15.99c0.85-14.74-7.88-28.3-21.51-33.33
		c-5.05-1.86-9.92-4.09-14.27-7.14C6.86,76.34-3.3,59.8,7.28,46.26c-0.85,2.82-1.54,4.93,1.21,8c8.26,9.23,19.32,0.26,21.16-4.51
		c2.86-7.42,0.29-23.1-18.28-31.32c17.22-4.34,34.81,4.3,35.92,19.62c5,42.46,55.93,16.16,29.99,6.76
		c-0.36-0.13-10.67-1.59-10.16,5.74c-9.66-12.91-1.47-21.5,9.28-16.24c6.41,3.13,13.12,2.39,11.74-4.64
		c-0.44-2.24-1.12-4.42-2.05-6.47c9.9,10.57,19.38,32.85,13.63,45.24c-2.99,6.45-20.29,57.59-13.51,77.54
		c6.92,18.24,16.98-24.65,9.09-32.32c-15.2-14.78,29.65-65.06,15.22-76.46c51.62,40.78,4.63,57.73,11.41,77.41
		c0.41,1.18,23.99-19.24,23.3-19.91C245.05,121.59,152.31,212.88,95.97,186.03z M189.05,99.84c-5.54-17.23-19.73-35.19-33.53-44.32
		c1.97,3.68,4.49,8.27,6.56,12.91c-7.55-4.49-16.07-8.87-21.11-15.27c-8.34-10.18-4.43-26.46,5.74-33.12
		c-14.82,4.65-21.46,25.29-12.55,38.72c5.38,9.73,15.99,15.37,24.92,22.17c8.5,6.48,11.52,16.73,14.95,26.86
		C186.21,143.76,185.55,120.05,189.05,99.84z M22.16,103.81c0.66-5.46-3.78-13.2-9.5-12.06c6.36,7.04-4.07,14.87-3.5,23.24
		c-1.09,8.33,7.65,14.94,14.95,13.24c-0.95-1.07-3.08-3.19-4.22-5.05C16.47,117.08,22.42,110.85,22.16,103.81z M103.93,34.21
		c13.82-6.86,3.36-27.98-10.6-26.25c-5.78,0.29-10.43,3.12-13.29,7.01C90.56,14.26,107.13,21.21,103.93,34.21z"/>
</g>
<g id="レイヤー_4のコピー_3" class="st0">
	
		<radialGradient id="SVGID_00000160870852975477426160000011607130595774269832_" cx="162.7242" cy="176.2828" r="240.6738" gradientTransform="matrix(0.992 -0.1266 0.1266 0.992 -2.277 12.1786)" gradientUnits="userSpaceOnUse">
		<stop  offset="0" style="stop-color:#FFE200"/>
		<stop  offset="0.1048" style="stop-color:#FFDF00"/>
		<stop  offset="0.2102" style="stop-color:#FFD700"/>
		<stop  offset="0.316" style="stop-color:#FCC900"/>
		<stop  offset="0.4221" style="stop-color:#F8B500"/>
		<stop  offset="0.5284" style="stop-color:#F39800"/>
		<stop  offset="0.635" style="stop-color:#EE7300"/>
		<stop  offset="0.7398" style="stop-color:#E8400D"/>
		<stop  offset="0.7974" style="stop-color:#E60012"/>
	</radialGradient>
	<path style="display:inline;fill:url(#SVGID_00000160870852975477426160000011607130595774269832_);" d="M96.02,186.16
		c-1.46-0.69-2.96-1.31-4.52-1.69c-6.97-1.68-12.75-7.18-19.76-8.55c-12.68-2.7-26.91-5.98-35.52-17.01
		c-14.64-17.72,13.93-37.3-5.08-52.6c11.56,2.5,17.21,17.39,14.49,29.01c-0.62,2.85-0.7,5.24-0.3,7.25
		c1.42,7.09,12.04,5.06,11.06-2.11c-0.74-5.4-0.83-10.83-0.52-16.24c0.86-14.96-8-28.74-21.85-33.84
		c-5.13-1.89-10.07-4.15-14.49-7.25C5.52,74.77-4.27,54.19,6.47,40.44c-0.97,4.32-0.62,8.31,0.71,11.91
		c4.35,11.8,24.4-42.35,8.29-51.36c15.77,4.9,19.85,25.03,20.98,40.59C35.21,83.82,84.8,59.44,60.6,31.3
		c-0.26-0.3-0.46-0.65-0.72-0.94c-6.91-7.58-16.82-2.93-14.74,8.34C30.21,21.17,60.94,8.62,76.15,32.09
		c3.94,6.08,13.33,2.43,11.92-4.71c-0.45-2.28-1.14-4.48-2.08-6.57c9.96,10.42,19.57,32.99,13.84,45.94
		c-2.92,6.6-20.6,58.48-13.72,78.75c7.02,18.52,17.24-25.03,9.23-32.82c-15.44-15.01,30.11-66.07,15.46-77.65
		c52.42,41.42,4.7,58.63,11.58,78.61c0.41,1.2,24.37-19.53,23.66-20.22C247.41,120.72,153.23,213.43,96.02,186.16z M190.54,98.63
		c-5.63-17.49-20.04-35.74-34.06-45.01c2,3.73,4.56,8.39,6.66,13.11c-7.67-4.56-16.32-9-21.44-15.51
		c-8.47-10.34-4.5-26.87,5.83-33.64c-15.05,4.72-21.8,25.68-12.75,39.33c5.47,9.88,16.24,15.61,25.31,22.51
		c8.63,6.58,11.7,16.99,15.18,27.27C187.65,143.24,186.99,119.16,190.54,98.63z M171.85,57.66c3.77-0.96,5.49-6.65,3.98-10.77
		c-3.04-10.39-19.93-12.63-16.07-24.98c-7,2.52-8.79,13.6-3.37,19.47C160.74,48.13,173.89,48.42,171.85,57.66z M105.98,33.3
		c15.18-3.87,9.29-27.07-4.94-28.32c-5.8-0.94-11.02,0.88-14.69,4.13C96.94,10.64,111.92,21.06,105.98,33.3z"/>
</g>
<g id="レイヤー_4のコピー_4">
	
		<radialGradient id="SVGID_00000149365026545774971950000006332946286283802792_" cx="162.7242" cy="176.2828" r="240.6738" gradientTransform="matrix(0.992 -0.1266 0.1266 0.992 -2.277 12.1786)" gradientUnits="userSpaceOnUse">
		<stop  offset="0" style="stop-color:#DAE000"/>
		<stop  offset="0.1083" style="stop-color:#D7DF00"/>
		<stop  offset="0.2236" style="stop-color:#CEDC13"/>
		<stop  offset="0.3423" style="stop-color:#BED641"/>
		<stop  offset="0.4634" style="stop-color:#A5CE63"/>
		<stop  offset="0.5862" style="stop-color:#7FC486"/>
		<stop  offset="0.7106" style="stop-color:#3AB8AB"/>
		<stop  offset="0.8338" style="stop-color:#00AACE"/>
		<stop  offset="0.9268" style="stop-color:#00A0E9"/>
	</radialGradient>
	<path style="fill:url(#SVGID_00000149365026545774971950000006332946286283802792_);" d="M96.02,186.16
		c-1.46-0.69-2.96-1.31-4.52-1.69c-6.97-1.68-12.75-7.18-19.76-8.55c-12.68-2.7-26.91-5.98-35.52-17.01
		c-14.64-17.72,13.93-37.3-5.08-52.6c11.56,2.5,17.21,17.39,14.49,29.01c-0.62,2.85-0.7,5.24-0.3,7.25
		c1.42,7.09,12.04,5.06,11.06-2.11c-0.74-5.4-0.83-10.83-0.52-16.24c0.86-14.96-8-28.74-21.85-33.84
		c-5.13-1.89-10.07-4.15-14.49-7.25C5.52,74.77-4.27,54.19,6.47,40.44c-0.97,4.32-0.62,8.31,0.71,11.91
		c4.35,11.8,24.4-42.35,8.29-51.36c15.77,4.9,19.85,25.03,20.98,40.59C35.21,83.82,84.8,59.44,60.6,31.3
		c-0.26-0.3-0.46-0.65-0.72-0.94c-6.91-7.58-16.82-2.93-14.74,8.34C30.21,21.17,60.94,8.62,76.15,32.09
		c3.94,6.08,13.33,2.43,11.92-4.71c-0.45-2.28-1.14-4.48-2.08-6.57c9.96,10.42,19.57,32.99,13.84,45.94
		c-2.92,6.6-20.6,58.48-13.72,78.75c7.02,18.52,17.24-25.03,9.23-32.82c-15.44-15.01,30.11-66.07,15.46-77.65
		c52.42,41.42,4.7,58.63,11.58,78.61c0.41,1.2,24.37-19.53,23.66-20.22C247.41,120.72,153.23,213.43,96.02,186.16z M190.54,98.63
		c-5.63-17.49-20.04-35.74-34.06-45.01c2,3.73,4.56,8.39,6.66,13.11c-7.67-4.56-16.32-9-21.44-15.51
		c-8.47-10.34-4.5-26.87,5.83-33.64c-15.05,4.72-21.8,25.68-12.75,39.33c5.47,9.88,16.24,15.61,25.31,22.51
		c8.63,6.58,11.7,16.99,15.18,27.27C187.65,143.24,186.99,119.16,190.54,98.63z M171.85,57.66c3.77-0.96,5.49-6.65,3.98-10.77
		c-3.04-10.39-19.93-12.63-16.07-24.98c-7,2.52-8.79,13.6-3.37,19.47C160.74,48.13,173.89,48.42,171.85,57.66z M105.98,33.3
		c15.18-3.87,9.29-27.07-4.94-28.32c-5.8-0.94-11.02,0.88-14.69,4.13C96.94,10.64,111.92,21.06,105.98,33.3z"/>
</g>
<g id="レイヤー_1">
	<ellipse class="st7" cx="96" cy="103.78" rx="44.56" ry="61.79"/>
	<path class="st8" d="M96,39.75c0,0,27.02,37.01,0,64.02s0,64.02,0,64.02"/>
	<ellipse class="st7" cx="96" cy="103.78" rx="44.56" ry="61.79"/>
	<path class="st9" d="M93.37,42.1c2.5,3.57,23.81,35.55,0.15,59.2c-11.98,11.98-15.8,27.72-11.04,45.52
		c2.05,7.66,5.25,14.08,7.61,18.19c1.93,0.35,3.9,0.56,5.9,0.56c0.88,0,1.76-0.05,2.63-0.12c-2.31-3.36-23.59-35.77-0.15-59.2
		c11.98-11.98,15.8-27.72,11.04-45.52c-2.05-7.66-5.25-14.08-7.61-18.19c-1.93-0.35-3.9-0.56-5.9-0.56
		C95.12,41.98,94.24,42.03,93.37,42.1z"/>
	<g class="st0">
		<path class="st10" d="M82.49,146.82c-4.76-17.8-0.94-33.54,11.04-45.52c20.25-20.25,7.55-46.61,1.9-56.01
			c-1.23-2.04-3.62-3.11-5.95-2.64c-21.52,4.38-38.04,30.07-38.04,61.13c0,23.82,9.72,44.49,23.97,54.79
			c4.53,3.28,10.56-1.26,8.7-6.54C83.52,150.38,82.97,148.63,82.49,146.82z"/>
		<path class="st10" d="M116.59,48.98c-4.53-3.28-10.56,1.26-8.7,6.54c0.59,1.66,1.13,3.4,1.62,5.21
			c4.76,17.8,0.94,33.54-11.04,45.52c-19.96,19.96-7.49,46.43-1.92,55.91c1.23,2.09,3.63,3.22,6,2.73c21.5-4.4,38-30.08,38-61.12
			C140.56,79.95,130.83,59.29,116.59,48.98z"/>
	</g>
	<g class="st0">
		<path class="st10" d="M92.33,148.33c6.86-19.63,20.41-31.89,39.2-35.46c31.75-6.04,36.64-38.69,37.34-51.04
			c0.15-2.68-1.4-5.2-3.88-6.24c-22.85-9.58-54.57,3.91-74.29,32.87c-15.12,22.22-19.17,47.67-12.43,66.33
			c2.15,5.94,10.65,5.53,12.26-0.58C91.04,152.3,91.63,150.33,92.33,148.33z"/>
		<path class="st10" d="M186.26,78.71c-2.15-5.94-10.65-5.53-12.26,0.58c-0.51,1.92-1.1,3.89-1.8,5.89
			c-6.86,19.63-20.41,31.89-39.2,35.46c-31.28,5.95-36.46,38.55-37.29,50.94c-0.18,2.73,1.35,5.3,3.87,6.36
			c22.85,9.55,54.54-3.94,74.25-32.89C188.95,122.82,193,97.37,186.26,78.71z"/>
	</g>
	<path class="st11" d="M89.41,159.45c-1.64,6.22-10.31,6.64-12.5,0.59c-6.87-19.02-2.75-44.96,12.67-67.61
		c20.09-29.53,52.43-43.27,75.72-33.51c2.53,1.06,4.11,3.62,3.95,6.36c-0.72,12.59-5.69,45.87-38.06,52.02
		c-19.14,3.64-32.96,16.14-39.95,36.14C90.53,155.48,89.92,157.49,89.41,159.45z M186.98,82.49c-2.19-6.05-10.86-5.63-12.5,0.59
		c-0.52,1.96-1.12,3.97-1.83,6c-6.99,20-20.81,32.5-39.95,36.14c-31.89,6.06-37.16,39.3-38.01,51.92c-0.19,2.78,1.37,5.41,3.94,6.48
		c23.29,9.73,55.59-4.01,75.68-33.52C189.72,127.44,193.85,101.5,186.98,82.49z"/>
</g>
<g id="レイヤー_11" class="st0">
	<g class="st2">
		<path class="st12" d="M72.32,10.54L84.6,35.41c1.14,2.31,3.34,3.91,5.89,4.28l27.45,3.99c6.41,0.93,8.97,8.81,4.33,13.34
			L102.4,76.37c-1.84,1.8-2.68,4.38-2.25,6.92l4.69,27.34c1.1,6.39-5.61,11.26-11.35,8.24l-24.55-12.91c-2.28-1.2-5-1.2-7.28,0
			l-24.55,12.91c-5.74,3.02-12.44-1.86-11.35-8.24l4.69-27.34c0.44-2.54-0.41-5.12-2.25-6.92L8.35,57.01
			c-4.64-4.52-2.08-12.41,4.33-13.34l27.45-3.99c2.55-0.37,4.75-1.97,5.89-4.28L58.3,10.54C61.17,4.72,69.45,4.72,72.32,10.54z"/>
		<path d="M96.59,123.12l-27.64-14.53c-2.28-1.2-5-1.2-7.28,0l-27.64,14.53c-5.74,3.02-12.44-1.86-11.35-8.24l5.28-30.78
			c0.44-2.54-0.41-5.12-2.25-6.92L3.36,55.39c-4.64-4.52-2.08-12.41,4.33-13.34l30.9-4.49c2.55-0.37,4.75-1.97,5.89-4.28l13.82-28
			c2.87-5.81,11.16-5.81,14.02,0l13.82,28c1.14,2.31,3.34,3.91,5.89,4.28l30.9,4.49c6.41,0.93,8.97,8.81,4.33,13.34l-22.36,21.8
			c-1.84,1.8-2.68,4.38-2.25,6.92l5.28,30.78C109.03,121.27,102.32,126.14,96.59,123.12z M13.35,58.64l17.36,16.92
			c1.84,1.8,2.68,4.38,2.25,6.92l-4.1,23.9c-1.1,6.39,5.61,11.26,11.35,8.24l21.46-11.28c2.28-1.2,5-1.2,7.28,0l21.46,11.28
			c5.74,3.02,12.44-1.86,11.35-8.24l-4.1-23.9c-0.44-2.54,0.41-5.12,2.25-6.92l17.36-16.92c4.64-4.52,2.08-12.41-4.33-13.34
			l-23.99-3.49c-2.55-0.37-4.75-1.97-5.89-4.28L72.32,15.79c-2.87-5.81-11.16-5.81-14.02,0L47.57,37.53
			c-1.14,2.31-3.34,3.91-5.89,4.28L17.69,45.3C11.27,46.23,8.71,54.11,13.35,58.64z"/>
	</g>
</g>
<g id="レイヤー_9" class="st0">
	<g class="st2">
		<circle class="st12" cx="66" cy="80.96" r="52.16"/>
	</g>
</g>
<g id="レイヤー_9のコピー" class="st0">
	<g class="st2">
		<circle class="st12" cx="156.81" cy="65.4" r="29.74"/>
	</g>
</g>
</svg>
